<?xml version="1.0" encoding="utf-8"?>
<!-- Generator: Adobe Illustrator 18.0.0, SVG Export Plug-In . SVG Version: 6.00 Build 0)  -->
<!DOCTYPE svg PUBLIC "-//W3C//DTD SVG 1.1//EN" "http://www.w3.org/Graphics/SVG/1.1/DTD/svg11.dtd">
<svg version="1.1" id="Layer_1" xmlns="http://www.w3.org/2000/svg" xmlns:xlink="http://www.w3.org/1999/xlink" x="0px" y="0px"
	 viewBox="0 0 512 512" enable-background="new 0 0 512 512" xml:space="preserve">
<g>
	<path fill-rule="evenodd" clip-rule="evenodd" fill="#222834" d="M258,415.6c-0.6,0-1,0-1.2-0.1l-155.5-60
		c-0.7-0.3-2.4-1.1-2.4-2.8v-200c0-0.3,0.2-2.1,4.4-3.4l153.1-52c0,0,0.7,0,1.1,0c0.7,0,1.4,0.1,2.2,0.2l153.3,52l0.5,0.1
		c1.4,0.2,3.9,0.5,4,3.2v200c0,1.7-1.6,2.5-2.3,2.7l-155.7,60C259.2,415.5,258.6,415.6,258,415.6z M261.7,215.2v192.7l149.5-57.7
		V157.8L261.7,215.2z M105.2,350.1l149.5,57.7V214.7l-149.5-56.9V350.1z M111.1,152.8l147.1,55.9l147.1-55.9l-147.1-49.3
		L111.1,152.8z"/>
	<polygon fill-rule="evenodd" clip-rule="evenodd" fill="#53AFA2" points="267.7,219.8 267.7,398 406,344.6 406,166.8 	"/>
	<path fill-rule="evenodd" clip-rule="evenodd" fill="#222834" d="M95.5,97.8c-0.8,0-1.5-0.3-2-0.8l-87-87V63c0,1.6-1.3,2.8-2.8,2.8
		c-1.6,0-2.8-1.3-2.8-2.8V3.1c0-1.6,1.3-2.8,2.8-2.8h59.9c0.8,0,1.5,0.3,2,0.8c0.5,0.5,0.8,1.2,0.8,2c0,1.6-1.3,2.8-2.8,2.8H10.5
		l87,87c0.5,0.5,0.8,1.2,0.8,2c0,<?xml version="1.0" encoding="utf-8"?>
<!-- Generator: Adobe Illustrator 18.0.0, SVG Export Plug-In . SVG Version: 6.00 Build 0)  -->
<!DOCTYPE svg PUBLIC "-//W3C//DTD SVG 1.1//EN" "http://www.w3.org/Graphics/SVG/1.1/DTD/svg11.dtd">
<svg version="1.1" id="Layer_1" xmlns="http://www.w3.org/2000/svg" xmlns:xlink="http://www.w3.org/1999/xlink" x="0px" y="0px"
	 viewBox="0 0 512 512" enable-background="new 0 0 512 512" xml:space="preserve">
<g>
	<path fill-rule="evenodd" clip-rule="evenodd" fill="#222834" d="M258,415.6c-0.6,0-1,0-1.2-0.1l-155.5-60
		c-0.7-0.3-2.4-1.1-2.4-2.8v-200c0-0.3,0.2-2.1,4.4-3.4l153.1-52c0,0,0.7,0,1.1,0c0.7,0,1.4,0.1,2.2,0.2l153.3,52l0.5,0.1
		c1.4,0.2,3.9,0.5,4,3.2v200c0,1.7-1.6,2.5-2.3,2.7l-155.7,60C259.2,415.5,258.6,415.6,258,415.6z M261.7,215.2v192.7l149.5-57.7
		V157.8L261.7,215.2z M105.2,350.1l149.5,57.7V214.7l-149.5-56.9V350.1z M111.1,152.8l147.1,55.9l147.1-55.9l-147.1-49.3
		L111.1,152.8z"/>
	<polygon fill-rule="evenodd" clip-rule="evenodd" fill="#53AFA2" points="267.7,219.8 267.7,398 406,344.6 406,166.8 	"/>
	<path fill-rule="evenodd" clip-rule="evenodd" fill="#222834" d="M95.5,97.8c-0.8,0-1.5-0.3-2-0.8l-87-87V63c0,1.6-1.3,2.8-2.8,2.8
		c-1.6,0-2.8-1.3-2.8-2.8V3.1c0-1.6,1.3-2.8,2.8-2.8h59.9c0.8,0,1.5,0.3,2,0.8c0.5,0.5,0.8,1.2,0.8,2c0,1.6-1.3,2.8-2.8,2.8H10.5
		l87,87c0.5,0.5,0.8,1.2,0.8,2c0,0.8-0.3,1.5-0.8,2C97,97.5,96.3,97.8,95.5,97.8"/>
	<path fill-rule="evenodd" clip-rule="evenodd" fill="#222834" d="M416.5,413c0.8,0,1.5,0.3,2,0.8l87,87v-53.1
		c0-1.6,1.3-2.8,2.8-2.8c1.6,0,2.8,1.3,2.8,2.8v59.9c0,1.6-1.3,2.8-2.8,2.8h-59.9c-0.8,0-1.5-0.3-2-0.8c-0.5-0.5-0.8-1.2-0.8-2
		c0-1.6,1.3-2.8,2.8-2.8h53.1l-87-87c-0.5-0.5-0.8-1.2-0.8-2c0-0.8,0.3-1.5,0.8-2C415,413.3,415.7,413,416.5,413"/>
</g>
</svg>
