<?xml version="1.0" encoding="utf-8"?>
<!-- Generator: Adobe Illustrator 18.0.0, SVG Export Plug-In . SVG Version: 6.00 Build 0)  -->
<!DOCTYPE svg PUBLIC "-//W3C//DTD SVG 1.1//EN" "http://www.w3.org/Graphics/SVG/1.1/DTD/svg11.dtd">
<svg version="1.1" id="Layer_1" xmlns="http://www.w3.org/2000/svg" xmlns:xlink="http://www.w3.org/1999/xlink" x="0px" y="0px"
	 viewBox="0 0 77 71.3" enable-background="new 0 0 77 71.3" xml:space="preserve">
<g>
	<path fill="#FFFFFF" d="M45.6,6.2C35.5,3.9,24.4,6.9,17,14.4C11.4,20,8.2,27.7,8.2,35.6c0,12.4,7.8,23.8,19.4,28.2
		c3.5,1.3,7.2,2,10.9,2c16.7,0,30.3-13.6,30.3-30.2c0-11.8-7.2-22.8-17.9-27.6C49.1,7.3,47.4,6.7,45.6,6.2z M38.5,61.9
		c-14.5,0-26.2-11.8-26.2-26.2S24,9.4,38.5,9.4s26.2,11.8,26.<?xml version="1.0" encoding="utf-8"?>
<!-- Generator: Adobe Illustrator 18.0.0, SVG Export Plug-In . SVG Version: 6.00 Build 0)  -->
<!DOCTYPE svg PUBLIC "-//W3C//DTD SVG 1.1//EN" "http://www.w3.org/Graphics/SVG/1.1/DTD/svg11.dtd">
<svg version="1.1" id="Layer_1" xmlns="http://www.w3.org/2000/svg" xmlns:xlink="http://www.w3.org/1999/xlink" x="0px" y="0px"
	 viewBox="0 0 77 71.3" enable-background="new 0 0 77 71.3" xml:space="preserve">
<g>
	<path fill="#FFFFFF" d="M45.6,6.2C35.5,3.9,24.4,6.9,17,14.4C11.4,20,8.2,27.7,8.2,35.6c0,12.4,7.8,23.8,19.4,28.2
		c3.5,1.3,7.2,2,10.9,2c16.7,0,30.3-13.6,30.3-30.2c0-11.8-7.2-22.8-17.9-27.6C49.1,7.3,47.4,6.7,45.6,6.2z M38.5,61.9
		c-14.5,0-26.2-11.8-26.2-26.2S24,9.4,38.5,9.4s26.2,11.8,26.2,26.2S53,61.9,38.5,61.9z"/>
	<path fill="#FFFFFF" d="M42.1,24h-7.6l3.6-3.6c0.8-0.8,0.8-2,0-2.8c-0.8-0.8-2-0.8-2.8,0l-7,7c-0.8,0.8-0.8,2.1,0,2.8l7,7
		c0.4,0.4,0.9,0.6,1.4,0.6c0.5,0,1-0.2,1.4-0.6c0.8-0.8,0.8-2,0-2.8L34.5,28h7.6c4.8,0,8.8,3.9,8.8,8.8c0,4.8-3.9,8.8-8.8,8.8H24.1
		c-1.1,0-2,0.9-2,2c0,1.1,0.9,2,2,2h18.1c7.1,0,12.8-5.7,12.8-12.8C54.9,29.8,49.2,24,42.1,24L42.1,24z"/>
</g>
</svg>
