<?xml version="1.0" encoding="utf-8"?>
<!-- Generator: Adobe Illustrator 18.0.0, SVG Export Plug-In . SVG Version: 6.00 Build 0)  -->
<!DOCTYPE svg PUBLIC "-//W3C//DTD SVG 1.1//EN" "http://www.w3.org/Graphics/SVG/1.1/DTD/svg11.dtd">
<svg version="1.1" id="Layer_1" xmlns="http://www.w3.org/2000/svg" xmlns:xlink="http://www.w3.org/1999/xlink" x="0px" y="0px"
	 viewBox="0 0 500.9 500" enable-background="new 0 0 500.9 500" xml:space="preserve">
<path fill="#000000" d="M376.2,134.3c-9.1-15.8-29.3-21.2-45.2-12.1v-4.4c0-5.8-1.6-11.5-4.4-16.5c-9.1-15.8-29.3-21.2-45.2-12.1v-4
	c0-18.2-14.6-33.4-32.9-33.5c-18.4-0.1-33.3,14.7-33.3,33.1v4.4c-5.1-2.9-10.7-4.4-16.5-4.4c-18.3,0-33.1,14.8-33.1,33.1v160.2
	l-22.3-24.1c-7.5-8.1-18.1-12.9-29.1-12.9c-0.1,0-0.1,0-0.2,0c-<?xml version="1.0" encoding="utf-8"?>
<!-- Generator: Adobe Illustrator 18.0.0, SVG Export Plug-In . SVG Version: 6.00 Build 0)  -->
<!DOCTYPE svg PUBLIC "-//W3C//DTD SVG 1.1//EN" "http://www.w3.org/Graphics/SVG/1.1/DTD/svg11.dtd">
<svg version="1.1" id="Layer_1" xmlns="http://www.w3.org/2000/svg" xmlns:xlink="http://www.w3.org/1999/xlink" x="0px" y="0px"
	 viewBox="0 0 500.9 500" enable-background="new 0 0 500.9 500" xml:space="preserve">
<path fill="#000000" d="M376.2,134.3c-9.1-15.8-29.3-21.2-45.2-12.1v-4.4c0-5.8-1.6-11.5-4.4-16.5c-9.1-15.8-29.3-21.2-45.2-12.1v-4
	c0-18.2-14.6-33.4-32.9-33.5c-18.4-0.1-33.3,14.7-33.3,33.1v4.4c-5.1-2.9-10.7-4.4-16.5-4.4c-18.3,0-33.1,14.8-33.1,33.1v160.2
	l-22.3-24.1c-7.5-8.1-18.1-12.9-29.1-12.9c-0.1,0-0.1,0-0.2,0c-8.4,0-16.4,3.3-22.3,9.3c-12.4,12.4-12.4,32.3,0,44.7l90.9,115.9
	c24,24.1,56.5,37.6,90.5,37.5c59.3-0.1,107.4-48.2,107.5-107.5V150.8C380.6,145,379.1,139.3,376.2,134.3z M364.1,340.9
	c-0.1,50.2-40.7,90.8-90.9,90.9c-29.6,0.1-58-11.7-78.8-32.7l-90.9-115.9c-2.8-2.8-4.4-6.6-4.4-10.6c0-8.4,6.7-15.1,15.1-15.2h0.1
	c7,0.1,13.8,2.8,19.1,7.5l36.4,34.6c1.1,0.6,2.4,0.8,3.7,0.8c4.5,0,8.9-4.7,8.9-9.2V117.6c0-9,7.2-16.3,16.2-16.5
	c9.3-0.2,16.8,7.5,16.8,16.8v107.2c0,4.5,3.6,8.2,8.1,8.3c4.7,0.1,8.5-3.8,8.5-8.5V84.7c0-9,7.2-16.3,16.2-16.5
	c9.3-0.2,16.8,7.5,16.8,16.8v140.2c0,4.5,3.6,8.2,8.1,8.3c4.7,0.1,8.5-3.8,8.5-8.5V117.7c0-9,7.2-16.3,16.2-16.5
	c9.3-0.2,16.8,7.5,16.8,16.8v107.2c0,4.5,3.6,8.2,8.1,8.3c4.7,0.1,8.5-3.8,8.5-8.5v-74.2c0-9,7.2-16.3,16.2-16.5
	c9.3-0.2,16.8,7.5,16.8,16.8L364.1,340.9L364.1,340.9z"/>
</svg>
