<?xml version="1.0" encoding="utf-8"?>
<!-- Generator: Adobe Illustrator 18.0.0, SVG Export Plug-In . SVG Version: 6.00 Build 0)  -->
<!DOCTYPE svg PUBLIC "-//W3C//DTD SVG 1.1//EN" "http://www.w3.org/Graphics/SVG/1.1/DTD/svg11.dtd">
<svg version="1.1" id="Layer_1" xmlns="http://www.w3.org/2000/svg" xmlns:xlink="http://www.w3.org/1999/xlink" x="0px" y="0px"
	 viewBox="0 0 512 512" enable-background="new 0 0 512 512" xml:space="preserve">
<g>
	<g>
		<g>
			<path fill="#222834" d="M254.8,509.4c-0.5,0-0.9,0-1.1-0.1L118.1,457c-0.7-0.2-2.1-0.9-2.1-2.4V280c0-0.2,0.2-1.9,3.8-3
				l133.7-45.4c0,0,0.6,0,1,0c0.6,0,1.2,0.1,2,0.2l133.8,45.4l0.4,0.1c1.2,0.2,3.4,0.4,3.5,2.8v174.6c0,1.5-1.4,2.2-2,2.4
				l-135.9,52.4C255.9,509.4,255.4,509.4,254.8,509.4z M258.1,334.5v168.2l130.5-50.4V284.4L258.1,334.5z M121.5,452.3L252,502.7
				V334.2l-130.5-49.7V452.3z M126.6,280.1l128.4,48.8l128.4-48.8l-128.4-43L126.6,280.1z"/>
			<polygon fill="#53AFA2" points="263.4,338.6 263.4,494.1 384,447.5 384,292.3 			"/>
		</g>
		<path fill="#222834" d="M258.4,45.3c0.6,0.6,0.9,1.3,0.9,2.1v131.4l40.1-40.1c1.2-1.2,3.1-1.2,4.3,0c1.2,1.2,1.2,3.1,0,4.3
			l-45.2,45.2c-1.2,1.2-3.1,1.2-4.3,0l-45.2-45.2c-0.6-0.6-0.9-1.3-0.9-2.1c0-0.8,0.3-1.6,0.9-2.1c1.2-1.2,3.1-1.2,4.3,0l40.1,40.1
			l0-131.4c0-0.8,0.3-1.6,0.9-2.1c0.6-0.6,1.3-0.9,2.1-0.9C257,44.5,257.8,44.8,258.4,45.3z"/>
		<path fill="#222834" d="M366.3,3.2c0.4,0.4,0.6,1,0.6,1.6v96.6l29.5-29.5c0.9-0.9,2.3-0.9,3.1,0c0.9,0.9,0.9,2.3,0,3.1l-33.2,33.2
			c-0.9,0.9-2.3,0.9-3.1,0L329.9,75c-0.4-0.4-0.7-1-0.7-1.6c0-0.6,0.2-1.2,0.6-1.6c0.9-0.9,2.3-0.9,3.1,0l29.5,29.5l0-96.6
			c0-0.6,0.2-1.1,0.6-1.6c0.4-0.4,1-0.7,1.6-0<?xml version="1.0" encoding="utf-8"?>
<!-- Generator: Adobe Illustrator 18.0.0, SVG Export Plug-In . SVG Version: 6.00 Build 0)  -->
<!DOCTYPE svg PUBLIC "-//W3C//DTD SVG 1.1//EN" "http://www.w3.org/Graphics/SVG/1.1/DTD/svg11.dtd">
<svg version="1.1" id="Layer_1" xmlns="http://www.w3.org/2000/svg" xmlns:xlink="http://www.w3.org/1999/xlink" x="0px" y="0px"
	 viewBox="0 0 512 512" enable-background="new 0 0 512 512" xml:space="preserve">
<g>
	<g>
		<g>
			<path fill="#222834" d="M254.8,509.4c-0.5,0-0.9,0-1.1-0.1L118.1,457c-0.7-0.2-2.1-0.9-2.1-2.4V280c0-0.2,0.2-1.9,3.8-3
				l133.7-45.4c0,0,0.6,0,1,0c0.6,0,1.2,0.1,2,0.2l133.8,45.4l0.4,0.1c1.2,0.2,3.4,0.4,3.5,2.8v174.6c0,1.5-1.4,2.2-2,2.4
				l-135.9,52.4C255.9,509.4,255.4,509.4,254.8,509.4z M258.1,334.5v168.2l130.5-50.4V284.4L258.1,334.5z M121.5,452.3L252,502.7
				V334.2l-130.5-49.7V452.3z M126.6,280.1l128.4,48.8l128.4-48.8l-128.4-43L126.6,280.1z"/>
			<polygon fill="#53AFA2" points="263.4,338.6 263.4,494.1 384,447.5 384,292.3 			"/>
		</g>
		<path fill="#222834" d="M258.4,45.3c0.6,0.6,0.9,1.3,0.9,2.1v131.4l40.1-40.1c1.2-1.2,3.1-1.2,4.3,0c1.2,1.2,1.2,3.1,0,4.3
			l-45.2,45.2c-1.2,1.2-3.1,1.2-4.3,0l-45.2-45.2c-0.6-0.6-0.9-1.3-0.9-2.1c0-0.8,0.3-1.6,0.9-2.1c1.2-1.2,3.1-1.2,4.3,0l40.1,40.1
			l0-131.4c0-0.8,0.3-1.6,0.9-2.1c0.6-0.6,1.3-0.9,2.1-0.9C257,44.5,257.8,44.8,258.4,45.3z"/>
		<path fill="#222834" d="M366.3,3.2c0.4,0.4,0.6,1,0.6,1.6v96.6l29.5-29.5c0.9-0.9,2.3-0.9,3.1,0c0.9,0.9,0.9,2.3,0,3.1l-33.2,33.2
			c-0.9,0.9-2.3,0.9-3.1,0L329.9,75c-0.4-0.4-0.7-1-0.7-1.6c0-0.6,0.2-1.2,0.6-1.6c0.9-0.9,2.3-0.9,3.1,0l29.5,29.5l0-96.6
			c0-0.6,0.2-1.1,0.6-1.6c0.4-0.4,1-0.7,1.6-0.6C365.3,2.6,365.8,2.8,366.3,3.2z"/>
		<path fill="#222834" d="M148.9,3.2c0.4,0.4,0.6,1,0.6,1.6v96.6L179,71.9c0.9-0.9,2.3-0.9,3.1,0c0.9,0.9,0.9,2.3,0,3.1l-33.2,33.2
			c-0.9,0.9-2.3,0.9-3.1,0L112.5,75c-0.4-0.4-0.7-1-0.7-1.6c0-0.6,0.2-1.2,0.6-1.6c0.9-0.9,2.3-0.9,3.1,0l29.5,29.5l0-96.6
			c0-0.6,0.2-1.1,0.6-1.6c0.4-0.4,1-0.7,1.6-0.6C147.9,2.6,148.5,2.8,148.9,3.2z"/>
	</g>
</g>
</svg>
