<?xml version="1.0" encoding="utf-8"?>
<!-- Generator: Adobe Illustrator 18.0.0, SVG Export Plug-In . SVG Version: 6.00 Build 0)  -->
<!DOCTYPE svg PUBLIC "-//W3C//DTD SVG 1.1//EN" "http://www.w3.org/Graphics/SVG/1.1/DTD/svg11.dtd">
<svg version="1.1" id="Layer_1" xmlns="http://www.w3.org/2000/svg" xmlns:xlink="http://www.w3.org/1999/xlink" x="0px" y="0px"
	 viewBox="0 0 512 512" enable-background="new 0 0 512 512" xml:space="preserve">
<g>
	<polygon fill="#53AFA2" points="366.4,217.4 366.4,388.5 499.1,337.2 499.1,166.5 	"/>
	<path fill="#222834" d="M48.8,249.9c0.6-0.6,1.5-1,2.3-1h144.5l-44.1-44.1c-1.3-1.3-1.3-3.4,0-4.7c1.3-1.3,3.4-1.3,4.7,0l49.7,49.7
		c1.3,1.3,1.3,3.4,0,4.7l-49.7,49.7c-0.6,0.6-1.5,1-2.3,1c-0.9,0-1.7-0.3-2.3-1c-1.3-1.3-1.3-3.4,0-4.7l44.1-44.1l-144.5,0
		c-0.9,0-1.7-0.3-2.3-1c-0.6-0.6-1-1.5-1-2.3C47.8,251.4,48.2,250.6,48.8,249.9z"/>
	<path fill="#222834" d="M2.5,131.3c0.5-0.5,1.1-0.7,1.7-0.7h106.2L78,98.2c-0.9-0.9-1-2.5,0-3.4c1-1,2.5-1,3.4,0l36.6,36.6
		c0.9,0.9,1,2.5,0,3.4l-36.6,36.6c-0.5,0.5-1.1,0.7-1.7,0.7c-0.7,0-1.3-0.3-1.7-0.7c-0.9-0.9-1-2.5,0-3.4l32.4-32.4l-106.2,0
		c-0.7,0-1.3-0.3-1.7-0.7c-0.5-0.5-0.7-1.1-0.7-1.7C1.8,132.3,2,131.7,2.5,131.3z"/>
	<path fill="#222834" d="M2.5,370.3c0.5-0.5,1.1-0.7,1.7-0.7h106.2L78,337.2c-0.9-0.9-1-2.5,0-3.4c1-1,2.5-1,3.4,0l36.6,36.6
		c0.9,0.9,1,2.5,0,3.4l-36.6,36.6c-0.5,0.5-1.1,0.7-1.7,0.7c-0.7,0-1.3-0.3-1.7-0.7c-0.9-0.9-1-2.5,0-3.4l32.4-32.4l-106.2,0
		c-0.7,0-1.3-0.3-1.7-0.7c-0.5-0.5-0.7<?xml version="1.0" encoding="utf-8"?>
<!-- Generator: Adobe Illustrator 18.0.0, SVG Export Plug-In . SVG Version: 6.00 Build 0)  -->
<!DOCTYPE svg PUBLIC "-//W3C//DTD SVG 1.1//EN" "http://www.w3.org/Graphics/SVG/1.1/DTD/svg11.dtd">
<svg version="1.1" id="Layer_1" xmlns="http://www.w3.org/2000/svg" xmlns:xlink="http://www.w3.org/1999/xlink" x="0px" y="0px"
	 viewBox="0 0 512 512" enable-background="new 0 0 512 512" xml:space="preserve">
<g>
	<polygon fill="#53AFA2" points="366.4,217.4 366.4,388.5 499.1,337.2 499.1,166.5 	"/>
	<path fill="#222834" d="M48.8,249.9c0.6-0.6,1.5-1,2.3-1h144.5l-44.1-44.1c-1.3-1.3-1.3-3.4,0-4.7c1.3-1.3,3.4-1.3,4.7,0l49.7,49.7
		c1.3,1.3,1.3,3.4,0,4.7l-49.7,49.7c-0.6,0.6-1.5,1-2.3,1c-0.9,0-1.7-0.3-2.3-1c-1.3-1.3-1.3-3.4,0-4.7l44.1-44.1l-144.5,0
		c-0.9,0-1.7-0.3-2.3-1c-0.6-0.6-1-1.5-1-2.3C47.8,251.4,48.2,250.6,48.8,249.9z"/>
	<path fill="#222834" d="M2.5,131.3c0.5-0.5,1.1-0.7,1.7-0.7h106.2L78,98.2c-0.9-0.9-1-2.5,0-3.4c1-1,2.5-1,3.4,0l36.6,36.6
		c0.9,0.9,1,2.5,0,3.4l-36.6,36.6c-0.5,0.5-1.1,0.7-1.7,0.7c-0.7,0-1.3-0.3-1.7-0.7c-0.9-0.9-1-2.5,0-3.4l32.4-32.4l-106.2,0
		c-0.7,0-1.3-0.3-1.7-0.7c-0.5-0.5-0.7-1.1-0.7-1.7C1.8,132.3,2,131.7,2.5,131.3z"/>
	<path fill="#222834" d="M2.5,370.3c0.5-0.5,1.1-0.7,1.7-0.7h106.2L78,337.2c-0.9-0.9-1-2.5,0-3.4c1-1,2.5-1,3.4,0l36.6,36.6
		c0.9,0.9,1,2.5,0,3.4l-36.6,36.6c-0.5,0.5-1.1,0.7-1.7,0.7c-0.7,0-1.3-0.3-1.7-0.7c-0.9-0.9-1-2.5,0-3.4l32.4-32.4l-106.2,0
		c-0.7,0-1.3-0.3-1.7-0.7c-0.5-0.5-0.7-1.1-0.7-1.7C1.8,371.4,2,370.8,2.5,370.3z"/>
	<path fill="#222834" d="M506.4,150l-0.5-0.1l-147.1-50c-0.8-0.1-1.5-0.2-2.1-0.2c-0.5,0-1.1,0-1.1,0l-78.3,26.6v6.2l80-26.8
		l141.2,47.3l-141.2,53.7l-80-30.4v7l76.6,29.2v185.4l-76.6-29.6v6.6l78.6,30.3c0.2,0,0.6,0.1,1.2,0.1c0.6,0,1.2,0,1.6-0.1
		l149.4-57.6c0.7-0.2,2.2-1,2.2-2.6V153C510.2,150.5,507.8,150.1,506.4,150z M504.2,342.5l-143.5,55.4V213l143.5-55.1V342.5z"/>
	<path fill="#222834" d="M279.9,446.8h-5.1c-0.3,0-0.5-0.2-0.5-0.5V65.7c0-0.3,0.2-0.5,0.5-0.5h5.1c0.3,0,0.5,0.2,0.5,0.5v380.6
		C280.4,446.6,280.1,446.8,279.9,446.8z"/>
</g>
</svg>
