<?xml version="1.0" encoding="utf-8"?>
<!-- Generator: Adobe Illustrator 18.0.0, SVG Export Plug-In . SVG Version: 6.00 Build 0)  -->
<!DOCTYPE svg PUBLIC "-//W3C//DTD SVG 1.1//EN" "http://www.w3.org/Graphics/SVG/1.1/DTD/svg11.dtd">
<svg version="1.1" id="Layer_1" xmlns="http://www.w3.org/2000/svg" xmlns:xlink="http://www.w3.org/1999/xlink" x="0px" y="0px"
	 viewBox="0 0 512 512" enable-background="new 0 0 512 512" xml:space="preserve">
<path fill="#424143" d="M290,39.6c3.5,1.2,7.7,1.7,13.3,1.8c21.6,0.1,43.2,0.1,63.3,0.1l50.6,0c1.9,0,3.7,0.1,5.8,0.2
	c1.1,0.1,2.2,0.1,3.4,0.2l9.2,0.5l-6.1,7c-0.7,0.8-1.3,1.5-1.7,2c-0.8,1-1.5,1.7-2.2,2.4l-15.3,15.4c-32.5,32.7-66,66.5-99.2,99.7
	l28.4,<?xml version="1.0" encoding="utf-8"?>
<!-- Generator: Adobe Illustrator 18.0.0, SVG Export Plug-In . SVG Version: 6.00 Build 0)  -->
<!DOCTYPE svg PUBLIC "-//W3C//DTD SVG 1.1//EN" "http://www.w3.org/Graphics/SVG/1.1/DTD/svg11.dtd">
<svg version="1.1" id="Layer_1" xmlns="http://www.w3.org/2000/svg" xmlns:xlink="http://www.w3.org/1999/xlink" x="0px" y="0px"
	 viewBox="0 0 512 512" enable-background="new 0 0 512 512" xml:space="preserve">
<path fill="#424143" d="M290,39.6c3.5,1.2,7.7,1.7,13.3,1.8c21.6,0.1,43.2,0.1,63.3,0.1l50.6,0c1.9,0,3.7,0.1,5.8,0.2
	c1.1,0.1,2.2,0.1,3.4,0.2l9.2,0.5l-6.1,7c-0.7,0.8-1.3,1.5-1.7,2c-0.8,1-1.5,1.7-2.2,2.4l-15.3,15.4c-32.5,32.7-66,66.5-99.2,99.7
	l28.4,29.8c27.9-27.9,56-56.2,83.3-83.7l29.1-29.3c1.2-1.2,2.5-2.4,4.2-3.9c0.9-0.8,1.9-1.7,3.1-2.8l7.5-6.9l0,52.7
	c0,27.4,0,54.8,0,82.2c0,8.2,2.4,18.9,13.5,22.9c2.5,0.9,5,1.4,7.5,1.4c11.4,0,20.1-9.6,20.1-22.3c0.1-55.1,0.1-111.1,0-165.3
	l0-19.8c0-16.1-7.6-23.5-23.9-23.6c-26.1,0-52.2,0-78.3,0l-103.6,0l-2.4,0c-1.4,0-2.8,0-4.3,0.2c-9.6,1-16.9,8.3-18.2,18.3
	C276.1,27.5,281.8,36.9,290,39.6z M222,472.4c-3.5-1.2-7.7-1.7-13.3-1.8c-21.6-0.1-43.2-0.1-63.3-0.1l-50.6,0
	c-1.9,0-3.7-0.1-5.8-0.2c-1.1-0.1-2.2-0.1-3.4-0.2l-9.2-0.5l6.1-7c0.7-0.8,1.3-1.5,1.7-2c0.8-1,1.5-1.7,2.2-2.4l15.3-15.4
	c32.5-32.7,66-66.5,99.2-99.7l-28.4-29.8c-27.9,27.9-56,56.2-83.3,83.7l-29.1,29.3c-1.2,1.2-2.5,2.4-4.2,3.9
	c-0.9,0.8-1.9,1.7-3.1,2.8l-7.5,6.9l0-52.7c0-27.4,0-54.8,0-82.2c0-8.2-2.4-18.9-13.5-22.9c-2.5-0.9-5-1.4-7.5-1.4
	c-11.4,0-20.1,9.6-20.1,22.3C3.9,358.2,4,414.2,4,468.4l0,19.8c0,16.1,7.6,23.5,23.9,23.6c26.1,0,52.2,0,78.3,0l103.6,0l2.4,0
	c1.4,0,2.8,0,4.3-0.2c9.6-1,16.9-8.3,18.2-18.3C235.9,484.5,230.2,475.1,222,472.4z M216.5,0.4c-1.4-0.1-2.9-0.2-4.3-0.2l-2.4,0
	l-103.6,0c-26.1,0-52.2,0-78.3,0C11.6,0.3,4,7.8,4,23.8l0,19.8c0,54.2-0.1,110.2,0,165.3c0,12.7,8.7,22.3,20.1,22.3
	c2.5,0,5-0.5,7.5-1.4c11.1-4,13.5-14.7,13.5-22.9c0-27.4,0-54.8,0-82.2l0-52.7l7.5,6.9c1.2,1.1,2.2,2,3.1,2.8
	c1.6,1.5,2.9,2.6,4.2,3.9L89,114.9c27.3,27.5,55.5,55.8,83.3,83.7l28.4-29.8c-33.2-33.2-66.7-67-99.2-99.7L86.3,53.8
	c-0.7-0.7-1.3-1.4-2.2-2.4c-0.5-0.5-1-1.2-1.7-2l-6.1-7l9.2-0.5c1.3-0.1,2.4-0.1,3.4-0.2c2.1-0.1,3.9-0.2,5.8-0.2l50.6,0
	c20.1,0,41.6,0,63.3-0.1c5.6,0,9.9-0.6,13.3-1.8c8.2-2.7,13.9-12.1,12.7-20.8C233.4,8.8,226.1,1.4,216.5,0.4z M487.9,280.8
	c-2.5,0-5,0.5-7.5,1.4c-11.1,4-13.5,14.7-13.5,22.9c0,27.4,0,54.8,0,82.2l0,52.7l-7.5-6.9c-1.2-1.1-2.2-2-3.1-2.8
	c-1.6-1.5-2.9-2.6-4.2-3.9L423,397.1c-27.3-27.5-55.5-55.8-83.3-83.7l-28.4,29.8c33.2,33.2,66.7,67,99.2,99.7l15.3,15.4
	c0.7,0.7,1.3,1.4,2.2,2.4c0.5,0.5,1,1.2,1.7,2l6.1,7l-9.2,0.5c-1.3,0.1-2.4,0.1-3.4,0.2c-2.1,0.1-3.9,0.2-5.8,0.2l-50.6,0
	c-20.1,0-41.6,0-63.3,0.1c-5.6,0-9.9,0.6-13.3,1.8c-8.2,2.7-13.9,12.1-12.7,20.8c1.3,10,8.6,17.4,18.2,18.3c1.4,0.1,2.9,0.2,4.3,0.2
	l2.4,0l103.6,0c26.1,0,52.2,0,78.3,0c16.3,0,23.9-7.5,23.9-23.6l0-19.8c0-54.2,0.1-110.2,0-165.3
	C507.9,290.4,499.3,280.8,487.9,280.8z"/>
</svg>
