<?xml version="1.0" encoding="utf-8"?>
<!-- Generator: Adobe Illustrator 18.0.0, SVG Export Plug-In . SVG Version: 6.00 Build 0)  -->
<!DOCTYPE svg PUBLIC "-//W3C//DTD SVG 1.1//EN" "http://www.w3.org/Graphics/SVG/1.1/DTD/svg11.dtd">
<svg version="1.1" id="Layer_1" xmlns="http://www.w3.org/2000/svg" xmlns:xlink="http://www.w3.org/1999/xlink" x="0px" y="0px"
	 viewBox="0 0 512 512" enable-background="new 0 0 512 512" xml:space="preserve">
<g>
	<defs>
		<path id="SVGID_1_" d="M388.4,264.2h-26.8v32.6h-20.1v-32.6h-33.5v-19.5h33.5v-26.1h20.1v26.1h26.8V264.2z M206.7,342.8
			c-47.4,0-85.8-38.4-85.8-84.6c0-46.2,38.4-84.2,85.8-84.2c22.2,0,42.5,8.1,57.7,21.5c-17.9,16.5-17.3,17.4-24.4,24.3
			c-8.8-7.2-18.4-12.4-33.3-12.4c-28.2,0-50.1,22.3-50.1,49.7c0,27.4,21.9,51.5,50.1,51.5c27.8,0,39.1-11.9,46.4-31.4h-45.4v-32.6
			h81.4C294.8,283.8,277.5,34<?xml version="1.0" encoding="utf-8"?>
<!-- Generator: Adobe Illustrator 18.0.0, SVG Export Plug-In . SVG Version: 6.00 Build 0)  -->
<!DOCTYPE svg PUBLIC "-//W3C//DTD SVG 1.1//EN" "http://www.w3.org/Graphics/SVG/1.1/DTD/svg11.dtd">
<svg version="1.1" id="Layer_1" xmlns="http://www.w3.org/2000/svg" xmlns:xlink="http://www.w3.org/1999/xlink" x="0px" y="0px"
	 viewBox="0 0 512 512" enable-background="new 0 0 512 512" xml:space="preserve">
<g>
	<defs>
		<path id="SVGID_1_" d="M388.4,264.2h-26.8v32.6h-20.1v-32.6h-33.5v-19.5h33.5v-26.1h20.1v26.1h26.8V264.2z M206.7,342.8
			c-47.4,0-85.8-38.4-85.8-84.6c0-46.2,38.4-84.2,85.8-84.2c22.2,0,42.5,8.1,57.7,21.5c-17.9,16.5-17.3,17.4-24.4,24.3
			c-8.8-7.2-18.4-12.4-33.3-12.4c-28.2,0-50.1,22.3-50.1,49.7c0,27.4,21.9,51.5,50.1,51.5c27.8,0,39.1-11.9,46.4-31.4h-45.4v-32.6
			h81.4C294.8,283.8,277.5,342.8,206.7,342.8z M256,8.7C115.7,8.7,2,119.4,2,256C2,392.6,115.7,503.3,256,503.3
			c140.2,0,254-110.7,254-247.3C510,119.4,396.3,8.7,256,8.7z"/>
	</defs>
	<clipPath id="SVGID_2_">
		<use xlink:href="#SVGID_1_"  overflow="visible"/>
	</clipPath>
	<g clip-path="url(#SVGID_2_)">
		<defs>
			<rect id="SVGID_3_" x="-13959.3" y="-20624" width="25790.9" height="24895.4"/>
		</defs>
		<clipPath id="SVGID_4_">
			<use xlink:href="#SVGID_3_"  overflow="visible"/>
		</clipPath>
		<rect x="-87.6" y="-80.9" clip-path="url(#SVGID_4_)" fill="#DCDCDF" width="687.2" height="673.7"/>
	</g>
</g>
</svg>
