<?xml version="1.0" encoding="utf-8"?>
<!-- Generator: Adobe Illustrator 18.0.0, SVG Export Plug-In . SVG Version: 6.00 Build 0)  -->
<!DOCTYPE svg PUBLIC "-//W3C//DTD SVG 1.1//EN" "http://www.w3.org/Graphics/SVG/1.1/DTD/svg11.dtd">
<svg version="1.1" id="Layer_1" xmlns="http://www.w3.org/2000/svg" xmlns:xlink="http://www.w3.org/1999/xlink" x="0px" y="0px"
	 viewBox="0 0 512 512" enable-background="new 0 0 512 512" xml:space="preserve">
<g>
	<g>
		<path fill="#868686" d="M475.8,341.8c9.3-14.2,16.8-29.5,22.3-45.6c35.1-104-20.7-216.8-124.7-252l-28.3-7.4
			c-46.5-8.7-94.5-0.6-135.5,22.8c-23.9,13.7-44,31.6-59.7,52.2l6.5-1.7c9.1-1.7,18.3-2.7,27.4-3C243.7,47.1,339.9,37,411.6,87.5
			c80.1,56.5,99.3,167.2,42.8,247.3c-2.5,3.5-3.2,8.1-1.8,12.2l18.4,55.2l-58.1-19.4c-3.8-1.3-8-0.8-11.4,1.3
			C383.2,395.3,363,403,342.1,407c-6.6,9-13.9,17.2-21.8,24.7c29.7-1.7,59.5-10.2,87-25.9l75.9,25.3c1.4,0.5,2.8,0.7,4.2,0.7
			c1.4,0,2.8-0.2,4.2-0.7c6.9-2.3,10.7-9.8,8.4-16.7L475.8,341.8z"/>
	</g>
	<path fill="#868686" d="M271.1,145.1c-36.8-21-79.8-28.2-121.4-20.5l-25.3,6.6C31.3,162.7-18.7,263.7,12.8,356.9
		c4.9,14.4,11.6,28.1,19.9,40.8l-21.7,65c-2.1,6.2,1.3,12.9,7.5,15c1.2,0.4,2.5,0.6,3.7,0.6c1.3,0,2.6-0.2,3.8-0.6l68-22.7
		c85.6,48.9,194.6,19.1,243.5-66.5C386.5,303,356.7,194,271.1,145.1z M336.5,300c0.1,85.3-68.9,154.5-154.1,154.7
		c-28.5,0-56.5-7.8-80.8-22.7c-3-1.8-6.6-2.2-9.9-1.1L41,447.7l16-48.1c1.2-3.6,0.6-7.5-1.6-10.6C6.3,319.3,23,222.8,92<?xml version="1.0" encoding="utf-8"?>
<!-- Generator: Adobe Illustrator 18.0.0, SVG Export Plug-In . SVG Version: 6.00 Build 0)  -->
<!DOCTYPE svg PUBLIC "-//W3C//DTD SVG 1.1//EN" "http://www.w3.org/Graphics/SVG/1.1/DTD/svg11.dtd">
<svg version="1.1" id="Layer_1" xmlns="http://www.w3.org/2000/svg" xmlns:xlink="http://www.w3.org/1999/xlink" x="0px" y="0px"
	 viewBox="0 0 512 512" enable-background="new 0 0 512 512" xml:space="preserve">
<g>
	<g>
		<path fill="#868686" d="M475.8,341.8c9.3-14.2,16.8-29.5,22.3-45.6c35.1-104-20.7-216.8-124.7-252l-28.3-7.4
			c-46.5-8.7-94.5-0.6-135.5,22.8c-23.9,13.7-44,31.6-59.7,52.2l6.5-1.7c9.1-1.7,18.3-2.7,27.4-3C243.7,47.1,339.9,37,411.6,87.5
			c80.1,56.5,99.3,167.2,42.8,247.3c-2.5,3.5-3.2,8.1-1.8,12.2l18.4,55.2l-58.1-19.4c-3.8-1.3-8-0.8-11.4,1.3
			C383.2,395.3,363,403,342.1,407c-6.6,9-13.9,17.2-21.8,24.7c29.7-1.7,59.5-10.2,87-25.9l75.9,25.3c1.4,0.5,2.8,0.7,4.2,0.7
			c1.4,0,2.8-0.2,4.2-0.7c6.9-2.3,10.7-9.8,8.4-16.7L475.8,341.8z"/>
	</g>
	<path fill="#868686" d="M271.1,145.1c-36.8-21-79.8-28.2-121.4-20.5l-25.3,6.6C31.3,162.7-18.7,263.7,12.8,356.9
		c4.9,14.4,11.6,28.1,19.9,40.8l-21.7,65c-2.1,6.2,1.3,12.9,7.5,15c1.2,0.4,2.5,0.6,3.7,0.6c1.3,0,2.6-0.2,3.8-0.6l68-22.7
		c85.6,48.9,194.6,19.1,243.5-66.5C386.5,303,356.7,194,271.1,145.1z M336.5,300c0.1,85.3-68.9,154.5-154.1,154.7
		c-28.5,0-56.5-7.8-80.8-22.7c-3-1.8-6.6-2.2-9.9-1.1L41,447.7l16-48.1c1.2-3.6,0.6-7.5-1.6-10.6C6.3,319.3,23,222.8,92.8,173.6
		s166.2-32.5,215.4,37.3C326.6,237,336.5,268.1,336.5,300z"/>
	<g>
		<path fill="#868686" d="M229.9,250.1c0,6.1-1.4,11.7-4.1,16.6c-2.7,5-6.1,9.6-10.1,13.8c-4,4.2-8.4,8.2-13.3,11.9
			c-4.8,3.7-9.3,7.3-13.3,11c-4,3.7-7.4,7.5-10.1,11.5c-2.7,4-4.1,8.4-4.1,13.1c0,3.3,0.9,8.3,2.7,15c1.8,6.7,3.9,13.3,6.5,19.6
			c0.5,1.4,0.7,2.4,0.7,2.8c0,1.4-0.6,2.8-1.8,4.2c-1.2,1.4-3.4,2.6-6.7,3.5c-9.9-11.6-16.9-21.8-21.1-30.6
			c-4.1-8.8-6.2-16.6-6.2-23.2c0-9,2.8-16.7,8.5-23.2c5.7-6.5,12-12.6,18.9-18.2c7-5.7,13.3-11.3,18.9-17c5.7-5.7,8.5-12.3,8.5-19.8
			c0-5-0.7-9.1-2.1-12.6c-1.4-3.4-3.3-6.2-5.7-8.3c-2.4-2.1-5.1-3.7-8.3-4.8c-3.2-1.1-6.4-1.6-9.7-1.6c-2.8,0-6.5,1.2-11.1,3.7
			c-4.6,2.5-8.6,7.5-11.9,15c-0.7,1.4-1.7,2.5-2.8,3.4c-1.2,0.8-2.8,1.2-5,1.2c-0.9,0-2.5-0.2-4.8-0.5c-2.2-0.4-4.6-0.9-7.1-1.6
			c-2.5-0.7-4.7-1.5-6.5-2.5c-1.9-0.9-2.8-2-2.8-3.2c0-4.7,1.3-9.1,3.9-13.1c2.6-4,6.1-7.5,10.4-10.4c4.4-2.9,9.3-5.2,14.9-6.9
			c5.5-1.6,11.4-2.5,17.5-2.5c9.4,0,17.7,1.7,24.8,5c7.1,3.3,13,7.5,17.7,12.6c4.7,5.1,8.3,10.8,10.8,17.2
			C228.7,237.7,229.9,243.9,229.9,250.1z M165.8,399.1c0-4.7,1.7-8.7,5-12c3.3-3.3,7.4-5,12.3-5c4.7,0,8.6,1.7,11.7,5
			c3.1,3.3,4.7,7.3,4.7,12c0,5.2-1.6,9.4-4.7,12.7c-3.1,3.2-7,4.8-11.7,4.8c-4.8,0-8.9-1.6-12.3-4.8
			C167.5,408.6,165.8,404.3,165.8,399.1z"/>
	</g>
</g>
</svg>
