<svg width="19" height="23" viewBox="0 0 19 23" fill="none" xmlns="http://www.w3.org/2000/svg">
<path d="M15.8619 22.9998H2.37929C1.74826 22.9998 1.14308 22.7491 0.696878 22.3029C0.250675 21.8567 0 21.2516 0 20.6205V2.37929C0 1.74826 0.250675 1.14308 0.696878 0.696878C1.14308 0.250675 1.74826 0 2.37929 0H13.4827L18.2412 4.75858V20.6205C18.2412 21.2516 17.9906 21.8567 17.5444 22.3029C17.0982 22.7491 16.493 22.9998 15.8619 22.9998Z" fill="#FFDFA0"/>
<path d="M5.1543 5.552H13.0853V13.483H5.1543V5.552Z" fill="#FED17A"/>
<path d="M0 16.655H18.2412V20.6205C18.2412 21.2515 17.9906 21.8567 17.5444 22.3029C17.0982 <svg width="19" height="23" viewBox="0 0 19 23" fill="none" xmlns="http://www.w3.org/2000/svg">
<path d="M15.8619 22.9998H2.37929C1.74826 22.9998 1.14308 22.7491 0.696878 22.3029C0.250675 21.8567 0 21.2516 0 20.6205V2.37929C0 1.74826 0.250675 1.14308 0.696878 0.696878C1.14308 0.250675 1.74826 0 2.37929 0H13.4827L18.2412 4.75858V20.6205C18.2412 21.2516 17.9906 21.8567 17.5444 22.3029C17.0982 22.7491 16.493 22.9998 15.8619 22.9998Z" fill="#FFDFA0"/>
<path d="M5.1543 5.552H13.0853V13.483H5.1543V5.552Z" fill="#FED17A"/>
<path d="M0 16.655H18.2412V20.6205C18.2412 21.2515 17.9906 21.8567 17.5444 22.3029C17.0982 22.7491 16.493 22.9998 15.8619 22.9998H2.37929C1.74826 22.9998 1.14308 22.7491 0.696878 22.3029C0.250675 21.8567 0 21.2515 0 20.6205V16.655Z" fill="#FFC451"/>
<path d="M18.241 4.75858H15.8617C15.2307 4.75858 14.6255 4.50791 14.1793 4.06171C13.7331 3.6155 13.4824 3.01032 13.4824 2.37929V0L18.241 4.75858Z" fill="#FED17A"/>
<path d="M5.73228 17.8991H6.41163V20.728C6.41163 20.9881 6.36483 21.2182 6.27123 21.4184C6.17914 21.6167 6.04856 21.7701 5.87948 21.8786C5.71039 21.9871 5.51942 22.0414 5.30656 22.0414C4.95783 22.0414 4.68609 21.9319 4.49134 21.713C4.29659 21.4923 4.19922 21.1808 4.19922 20.7785H4.8831C4.8831 20.9787 4.91706 21.1265 4.985 21.2219C5.05293 21.3173 5.16012 21.3651 5.30656 21.3651C5.43639 21.3651 5.5398 21.3099 5.61679 21.1995C5.69379 21.0891 5.73228 20.9319 5.73228 20.728V17.8991Z" fill="white"/>
<path d="M7.67296 20.5456V21.9853H6.99361V17.8991H8.27984C8.52743 17.8991 8.74482 17.9553 8.93202 18.0675C9.12073 18.1798 9.26566 18.3398 9.3668 18.5474C9.46795 18.7532 9.51853 18.988 9.51853 19.2518C9.51853 19.6522 9.40756 19.9684 9.18564 20.2004C8.96523 20.4305 8.65953 20.5456 8.26852 20.5456H7.67296ZM7.67296 19.8636H8.27984C8.45949 19.8636 8.59612 19.8112 8.68972 19.7065C8.78483 19.6017 8.83238 19.452 8.83238 19.2574C8.83238 19.0573 8.78483 18.8954 8.68972 18.7719C8.59461 18.6485 8.46327 18.5848 8.2957 18.5811H7.67296V19.8636Z" fill="white"/>
<path d="M12.596 21.4689C12.4737 21.6504 12.3008 21.7916 12.0774 21.8927C11.854 21.9918 11.6064 22.0414 11.3347 22.0414C11.0493 22.0414 10.7987 21.9647 10.5828 21.8113C10.3685 21.656 10.2024 21.4315 10.0846 21.1377C9.96841 20.844 9.90877 20.4988 9.90575 20.1022V19.8243C9.90575 19.4165 9.96086 19.0638 10.0711 18.7663C10.1828 18.467 10.3428 18.2387 10.5511 18.0816C10.761 17.9225 11.0063 17.843 11.2871 17.843C11.6781 17.843 11.9838 17.959 12.2042 18.191C12.4246 18.4211 12.5552 18.757 12.596 19.1985H11.9347C11.9046 18.9646 11.8374 18.7935 11.7332 18.6849C11.6305 18.5764 11.4886 18.5222 11.3075 18.5222C11.0765 18.5222 10.9006 18.6297 10.7799 18.8449C10.6591 19.0601 10.5979 19.38 10.5964 19.8047V20.0657C10.5964 20.4941 10.6621 20.8178 10.7934 21.0367C10.9248 21.2556 11.1173 21.3651 11.3709 21.3651C11.626 21.3651 11.8079 21.2977 11.9166 21.163V20.4586H11.2984V19.8384H12.596V21.4689Z" fill="white"/>
</svg>
