<?xml version="1.0" encoding="utf-8"?>
<!-- Generator: Adobe Illustrator 18.0.0, SVG Export Plug-In . SVG Version: 6.00 Build 0)  -->
<!DOCTYPE svg PUBLIC "-//W3C//DTD SVG 1.1//EN" "http://www.w3.org/Graphics/SVG/1.1/DTD/svg11.dtd">
<svg version="1.1" id="Layer_1" xmlns="http://www.w3.org/2000/svg" xmlns:xlink="http://www.w3.org/1999/xlink" x="0px" y="0px"
	 viewBox="0 0 512 512" enable-background="new 0 0 512 512" xml:space="preserve">
<g>
	<defs>
		<path id="SVGID_1_" d="M385.9,365.8h-60v-75.7c0-20.1-6.9-33.7-25.6-33.7c-14.3,0-22.5,9.2-26.3,18.1c-1.4,3.2-1.5,7.6-1.5,12.1
			v79.2h-51.6c0,0,0.7-136.4,0-149.4h51.6v25.5c6.7-10.1,22.7-24.6,50.2-24.6c34.1,0,63.2,21.2,63.2,67.1V365.8z M166.4,203.4H166
			c-17.4,0-28.6-12.9-28.6-27.3c0-14.6,11.5-26.5,29.3-26.5c17.7,0,28.5,12.3,28.9,26.9C195.7,190.9,184.4,203.4,166.4,203.4z
			 M145.8,216.4h46.7v149.4h-46.7V216.4z M256,9.5C116.2,9.5,2.8,119.9,2.8,256c0,136.1,113.4,246.5,253.3,246.5
			c139.8,0,253.2-110.4,253.2-246.5C509.2,119.9,395.8,9.5,256,9.<?xml version="1.0" encoding="utf-8"?>
<!-- Generator: Adobe Illustrator 18.0.0, SVG Export Plug-In . SVG Version: 6.00 Build 0)  -->
<!DOCTYPE svg PUBLIC "-//W3C//DTD SVG 1.1//EN" "http://www.w3.org/Graphics/SVG/1.1/DTD/svg11.dtd">
<svg version="1.1" id="Layer_1" xmlns="http://www.w3.org/2000/svg" xmlns:xlink="http://www.w3.org/1999/xlink" x="0px" y="0px"
	 viewBox="0 0 512 512" enable-background="new 0 0 512 512" xml:space="preserve">
<g>
	<defs>
		<path id="SVGID_1_" d="M385.9,365.8h-60v-75.7c0-20.1-6.9-33.7-25.6-33.7c-14.3,0-22.5,9.2-26.3,18.1c-1.4,3.2-1.5,7.6-1.5,12.1
			v79.2h-51.6c0,0,0.7-136.4,0-149.4h51.6v25.5c6.7-10.1,22.7-24.6,50.2-24.6c34.1,0,63.2,21.2,63.2,67.1V365.8z M166.4,203.4H166
			c-17.4,0-28.6-12.9-28.6-27.3c0-14.6,11.5-26.5,29.3-26.5c17.7,0,28.5,12.3,28.9,26.9C195.7,190.9,184.4,203.4,166.4,203.4z
			 M145.8,216.4h46.7v149.4h-46.7V216.4z M256,9.5C116.2,9.5,2.8,119.9,2.8,256c0,136.1,113.4,246.5,253.3,246.5
			c139.8,0,253.2-110.4,253.2-246.5C509.2,119.9,395.8,9.5,256,9.5z"/>
	</defs>
	<clipPath id="SVGID_2_">
		<use xlink:href="#SVGID_1_"  overflow="visible"/>
	</clipPath>
	<g clip-path="url(#SVGID_2_)">
		<defs>
			<rect id="SVGID_3_" x="-14817.2" y="-20559.4" width="25711.1" height="24818.4"/>
		</defs>
		<clipPath id="SVGID_4_">
			<use xlink:href="#SVGID_3_"  overflow="visible"/>
		</clipPath>
		<rect x="-86.5" y="-79.8" clip-path="url(#SVGID_4_)" fill="#DCDCDF" width="685" height="671.6"/>
	</g>
</g>
</svg>
