<?xml version="1.0" encoding="utf-8"?>
<!-- Generator: Adobe Illustrator 18.0.0, SVG Export Plug-In . SVG Version: 6.00 Build 0)  -->
<!DOCTYPE svg PUBLIC "-//W3C//DTD SVG 1.1//EN" "http://www.w3.org/Graphics/SVG/1.1/DTD/svg11.dtd">
<svg version="1.1" id="Layer_1" xmlns="http://www.w3.org/2000/svg" xmlns:xlink="http://www.w3.org/1999/xlink" x="0px" y="0px"
	 viewBox="0 0 512 512" enable-background="new 0 0 512 512" xml:space="preserve">
<g>
	<path fill="none" stroke="#414042" stroke-width="5" stroke-miterlimit="10" d="M508.5,256c0,139.5-113.1,252.5-252.5,252.5
		C116.5,508.5,3.5,395.5,3.5,256S116.5,3.5,256,3.5S508.5,116.5,508.5,256z"/>
	<path fill="#414042" d="M247.7,362v-18.6l18.7,1.8l-1.8,16.8L247.7,362L247.7,362z M247.6,310l0.1-26.4l40.9-44
		c7.2-8,11.2-18.4,11.2-29.1c0-24.1-19.6-43.7-43.7-43.7c-23,0-42.1,17.9-43.6,40.8l-17-1.5c2.6-32.1,29.7-56.1,60.6-56.1
		c33.4,0,60.5,27.1,60.5,60.5c0,14.9-5.5,29.2-15.4,40.3l-35.5,39.7l-1,19.5H247.6z"/>
</g>
</svg<?xml version="1.0" encoding="utf-8"?>
<!-- Generator: Adobe Illustrator 18.0.0, SVG Export Plug-In . SVG Version: 6.00 Build 0)  -->
<!DOCTYPE svg PUBLIC "-//W3C//DTD SVG 1.1//EN" "http://www.w3.org/Graphics/SVG/1.1/DTD/svg11.dtd">
<svg version="1.1" id="Layer_1" xmlns="http://www.w3.org/2000/svg" xmlns:xlink="http://www.w3.org/1999/xlink" x="0px" y="0px"
	 viewBox="0 0 512 512" enable-background="new 0 0 512 512" xml:space="preserve">
<g>
	<path fill="none" stroke="#414042" stroke-width="5" stroke-miterlimit="10" d="M508.5,256c0,139.5-113.1,252.5-252.5,252.5
		C116.5,508.5,3.5,395.5,3.5,256S116.5,3.5,256,3.5S508.5,116.5,508.5,256z"/>
	<path fill="#414042" d="M247.7,362v-18.6l18.7,1.8l-1.8,16.8L247.7,362L247.7,362z M247.6,310l0.1-26.4l40.9-44
		c7.2-8,11.2-18.4,11.2-29.1c0-24.1-19.6-43.7-43.7-43.7c-23,0-42.1,17.9-43.6,40.8l-17-1.5c2.6-32.1,29.7-56.1,60.6-56.1
		c33.4,0,60.5,27.1,60.5,60.5c0,14.9-5.5,29.2-15.4,40.3l-35.5,39.7l-1,19.5H247.6z"/>
</g>
</svg>
