<?xml version="1.0" encoding="utf-8"?>
<!-- Generator: Adobe Illustrator 18.0.0, SVG Export Plug-In . SVG Version: 6.00 Build 0)  -->
<!DOCTYPE svg PUBLIC "-//W3C//DTD SVG 1.1//EN" "http://www.w3.org/Graphics/SVG/1.1/DTD/svg11.dtd">
<svg version="1.1" id="Layer_1" xmlns="http://www.w3.org/2000/svg" xmlns:xlink="http://www.w3.org/1999/xlink" x="0px" y="0px"
	 viewBox="0 0 512 512" enable-background="new 0 0 512 512" xml:space="preserve">
<path fill-rule="evenodd" clip-rule="evenodd" fill="#4A4A4A" d="M403.2,148.4C403.2,67.1,337.1,1,255.8,1
	c-81.2,0-147.4,66.1-147.4,147.4c0,50.3,25.4,94.9,64.1,121.5c-36.1,12.4-69.2,32.9-97,60.8C27.4,378.8,0.9,442.9,0.9,511h39.8
	c0-118.7,96.6-215.2,215.2-215.2C337.1,295.8,403.2,229.7,403.2,148.4z M255.8,256c-59.3,0-107.6-48.2-107.6-107.6
	c0-59.3,48.3-107.6,107.6-107.6c59.3,0,107.6,48.2,107.6,107.6C363.4,207.8,315.2,256,255.8,256z M511.1,367.6l-93.<?xml version="1.0" encoding="utf-8"?>
<!-- Generator: Adobe Illustrator 18.0.0, SVG Export Plug-In . SVG Version: 6.00 Build 0)  -->
<!DOCTYPE svg PUBLIC "-//W3C//DTD SVG 1.1//EN" "http://www.w3.org/Graphics/SVG/1.1/DTD/svg11.dtd">
<svg version="1.1" id="Layer_1" xmlns="http://www.w3.org/2000/svg" xmlns:xlink="http://www.w3.org/1999/xlink" x="0px" y="0px"
	 viewBox="0 0 512 512" enable-background="new 0 0 512 512" xml:space="preserve">
<path fill-rule="evenodd" clip-rule="evenodd" fill="#4A4A4A" d="M403.2,148.4C403.2,67.1,337.1,1,255.8,1
	c-81.2,0-147.4,66.1-147.4,147.4c0,50.3,25.4,94.9,64.1,121.5c-36.1,12.4-69.2,32.9-97,60.8C27.4,378.8,0.9,442.9,0.9,511h39.8
	c0-118.7,96.6-215.2,215.2-215.2C337.1,295.8,403.2,229.7,403.2,148.4z M255.8,256c-59.3,0-107.6-48.2-107.6-107.6
	c0-59.3,48.3-107.6,107.6-107.6c59.3,0,107.6,48.2,107.6,107.6C363.4,207.8,315.2,256,255.8,256z M511.1,367.6l-93.8,93.8
	l-28.2-28.2l46.7-46.7h-34.6c-47.7,0-86.6,38.8-86.6,86.6V511h-39.9v-38c0.1-69.7,56.9-126.4,126.5-126.4h32.6l-44.7-44.7l28.2-28.2
	L511.1,367.6z"/>
</svg>
