<?xml version="1.0" encoding="utf-8"?>
<!-- Generator: Adobe Illustrator 18.0.0, SVG Export Plug-In . SVG Version: 6.00 Build 0)  -->
<!DOCTYPE svg PUBLIC "-//W3C//DTD SVG 1.1//EN" "http://www.w3.org/Graphics/SVG/1.1/DTD/svg11.dtd">
<svg version="1.1" id="Layer_1" xmlns="http://www.w3.org/2000/svg" xmlns:xlink="http://www.w3.org/1999/xlink" x="0px" y="0px"
	 viewBox="0 0 512 512" enable-background="new 0 0 512 512" xml:space="preserve">
<g>
	<g>
		<path fill="#4A4A4A" d="M256,234.8c11.7,0,21.2-9.5,21.2-21.2V22.7c0-11.7-9.5-21.2-21.2-21.2c-11.7,0-21.2,9.5-21.2,21.2v190.9
			C234.8,225.3,244.3,234.8,256,234.8z M349.3,63.4c-10.7-4.7-23.2,0.2-28,10.9c-4.7,10.8,0.2,23.2<?xml version="1.0" encoding="utf-8"?>
<!-- Generator: Adobe Illustrator 18.0.0, SVG Export Plug-In . SVG Version: 6.00 Build 0)  -->
<!DOCTYPE svg PUBLIC "-//W3C//DTD SVG 1.1//EN" "http://www.w3.org/Graphics/SVG/1.1/DTD/svg11.dtd">
<svg version="1.1" id="Layer_1" xmlns="http://www.w3.org/2000/svg" xmlns:xlink="http://www.w3.org/1999/xlink" x="0px" y="0px"
	 viewBox="0 0 512 512" enable-background="new 0 0 512 512" xml:space="preserve">
<g>
	<g>
		<path fill="#4A4A4A" d="M256,234.8c11.7,0,21.2-9.5,21.2-21.2V22.7c0-11.7-9.5-21.2-21.2-21.2c-11.7,0-21.2,9.5-21.2,21.2v190.9
			C234.8,225.3,244.3,234.8,256,234.8z M349.3,63.4c-10.7-4.7-23.2,0.2-28,10.9c-4.7,10.8,0.2,23.2,11,28
			c69,30.1,114.5,98.4,114.5,175c0,105.4-85.5,190.8-190.8,190.8c-105.4,0-190.9-85.5-190.9-190.8c0-76.6,45.5-144.8,114.5-175
			c10.7-4.7,15.6-17.2,10.9-28c-4.7-10.7-17.2-15.6-27.9-10.9C78.4,100.2,22.8,183.6,22.8,277.2C22.8,406,127.2,510.4,256,510.4
			c128.8,0,233.2-104.4,233.2-233.2C489.2,183.6,433.6,100.2,349.3,63.4z"/>
	</g>
</g>
</svg>
