<?xml version="1.0" encoding="utf-8"?>
<!-- Generator: Adobe Illustrator 18.0.0, SVG Export Plug-In . SVG Version: 6.00 Build 0)  -->
<!DOCTYPE svg PUBLIC "-//W3C//DTD SVG 1.1//EN" "http://www.w3.org/Graphics/SVG/1.1/DTD/svg11.dtd">
<svg version="1.1" id="Layer_1" xmlns="http://www.w3.org/2000/svg" xmlns:xlink="http://www.w3.org/1999/xlink" x="0px" y="0px"
	 viewBox="0 0 512 512" enable-background="new 0 0 512 512" xml:space="preserve">
<g>
	<defs>
		<path id="SVGID_1_" d="M0.5,192.2c0-10.1,8.2-18.3,18.3-18.3h474.5c10.1,0,18.3,8.1,18.3,18.3v127.7c0,10.1-8.2,18.3-18.3,18.3
			H18.8c-10.1,0-18.3-8.1-18.3-18.3V192.2z"/>
	</defs>
	<clipPath id="SVGID_2_">
		<use xlink:href="#SVGID_1_"  overflow="visible"/>
	</clipPath>
	<g clip-path="url(#SVGID_2_)">
		<defs>
			<rect id="SVGID_3_" x="-912" y="-1023.3" width="5256" height="5073.5"/>
		</defs>
		<clipPath id="SVGID_4_">
			<use xlink:href="#SVGID_3_"  overflow="visible"/>
		</clipPath>
		<rect x="-17.8" y="155.6" clip-path="url(#SVGID_4_)" fill="#3B5998" wi<?xml version="1.0" encoding="utf-8"?>
<!-- Generator: Adobe Illustrator 18.0.0, SVG Export Plug-In . SVG Version: 6.00 Build 0)  -->
<!DOCTYPE svg PUBLIC "-//W3C//DTD SVG 1.1//EN" "http://www.w3.org/Graphics/SVG/1.1/DTD/svg11.dtd">
<svg version="1.1" id="Layer_1" xmlns="http://www.w3.org/2000/svg" xmlns:xlink="http://www.w3.org/1999/xlink" x="0px" y="0px"
	 viewBox="0 0 512 512" enable-background="new 0 0 512 512" xml:space="preserve">
<g>
	<defs>
		<path id="SVGID_1_" d="M0.5,192.2c0-10.1,8.2-18.3,18.3-18.3h474.5c10.1,0,18.3,8.1,18.3,18.3v127.7c0,10.1-8.2,18.3-18.3,18.3
			H18.8c-10.1,0-18.3-8.1-18.3-18.3V192.2z"/>
	</defs>
	<clipPath id="SVGID_2_">
		<use xlink:href="#SVGID_1_"  overflow="visible"/>
	</clipPath>
	<g clip-path="url(#SVGID_2_)">
		<defs>
			<rect id="SVGID_3_" x="-912" y="-1023.3" width="5256" height="5073.5"/>
		</defs>
		<clipPath id="SVGID_4_">
			<use xlink:href="#SVGID_3_"  overflow="visible"/>
		</clipPath>
		<rect x="-17.8" y="155.6" clip-path="url(#SVGID_4_)" fill="#3B5998" width="547.5" height="200.8"/>
	</g>
</g>
<g>
	<defs>
		<path id="SVGID_5_" d="M18.8,173.9h105.8v164.3H18.8c-10.1,0-18.3-8.2-18.3-18.3V192.1C0.5,182,8.7,173.9,18.8,173.9z"/>
	</defs>
	<clipPath id="SVGID_6_">
		<use xlink:href="#SVGID_5_"  overflow="visible"/>
	</clipPath>
	<g clip-path="url(#SVGID_6_)">
		<defs>
			<rect id="SVGID_7_" x="-912" y="-1023.3" width="5256" height="5073.5"/>
		</defs>
		<clipPath id="SVGID_8_">
			<use xlink:href="#SVGID_7_"  overflow="visible"/>
		</clipPath>
		<rect x="-17.8" y="155.6" clip-path="url(#SVGID_8_)" fill="#263C68" width="160.6" height="200.8"/>
	</g>
</g>
<g>
	<defs>
		<path id="SVGID_9_" d="M85.3,228.6H39.8c-1.6,0-2.8,1.4-2.8,3.2v52c0,1.8,1.3,3.2,2.8,3.2h24.5v-22.6h-6.7v-8.8h6.7v-6.5
			c0-7.5,4-11.7,9.9-11.7c2.8,0,5.2,0.2,5.9,0.3v7.9l-4.1,0c-3.2,0-3.8,1.7-3.8,4.3v5.6h7.6l-1,8.8h-6.6V287h13
			c1.6,0,2.8-1.4,2.8-3.2v-52C88.1,230.1,86.8,228.6,85.3,228.6z"/>
	</defs>
	<clipPath id="SVGID_10_">
		<use xlink:href="#SVGID_9_"  overflow="visible"/>
	</clipPath>
	<g clip-path="url(#SVGID_10_)">
		<defs>
			<rect id="SVGID_11_" x="-912" y="-1023.3" width="5256" height="5073.5"/>
		</defs>
		<clipPath id="SVGID_12_">
			<use xlink:href="#SVGID_11_"  overflow="visible"/>
		</clipPath>
		<rect x="18.8" y="210.4" clip-path="url(#SVGID_12_)" fill="#FFFFFF" width="87.6" height="94.9"/>
	</g>
</g>
<g>
	<defs>
		<rect id="SVGID_13_" x="157.5" y="235.9" width="219" height="43.1"/>
	</defs>
	<clipPath id="SVGID_14_">
		<use xlink:href="#SVGID_13_"  overflow="visible"/>
	</clipPath>
	<g clip-path="url(#SVGID_14_)">
		<text transform="matrix(1 0 0 1 159.8174 276.0713)" fill="#FFFFFF" font-family="'NeoSansStd-Regular'" font-size="51.1">Facebook</text>
	</g>
</g>
</svg>
