<?xml version="1.0" encoding="utf-8"?>
<!-- Generator: Adobe Illustrator 18.0.0, SVG Export Plug-In . SVG Version: 6.00 Build 0)  -->
<!DOCTYPE svg PUBLIC "-//W3C//DTD SVG 1.1//EN" "http://www.w3.org/Graphics/SVG/1.1/DTD/svg11.dtd">
<svg version="1.1" id="Layer_1" xmlns="http://www.w3.org/2000/svg" xmlns:xlink="http://www.w3.org/1999/xlink" x="0px" y="0px"
	 viewBox="0 0 512 512" enable-background="new 0 0 512 512" xml:space="preserve">
<path fill-rule="evenodd" clip-rule="evenodd" fill="#4A4A4A" d="M91.2,1.5H66.8c-36,0-65.3,29.3-65.3,65.4v378.4
	c0,36,29.3,65.3,65.3,65.3h24.4c36,0,65.3-29.3,65.3-65.3V66.8C156.5,30.8,127.2,1.5,91.2,1.5z M127.6,445.2
	c0,20.1-16.3,36.4-36.4,36.4H66.8c-20,0-36.4-16.3-36.4-36.4V66.8c0-20.1,16.3-36.4,36.4-36.4h24.4c20,0,36.4,16.3,36.4,36.4V445.2z
	 M445.2,1.5H276.3c-36,0-65.3,29.3-65.3,65.4v24.4c0,36,29.3,65.3,65.3,65.3h168.9c36,0,65.3-29.3,65.3-65.3V66.8
	C510.5,30.8,481.2,1.5,445.2,1.5z M481.6,91.3c0,20-16.3,36.4-36.4,36.4H276.3c-20,0-36.4-16.3-36.4-36.4V66.8
	c0-20.1,16.3-36.4,36.4-36.4h168.9c20.1,0,36.4,16.3,36.4,36.4V91.3z M445.2,212.1H276.3c-36,0-65.3,29.3-65.3,65.3v167.8
	c0,36,29.3,65.3,65.3,65.3h168.9c36,0,65.3-29.3,65.3-65.3c0-7.9-6.5-14.4-14.5-14.4c-8,0-14.5,6.5-14.5,14.4
	c0,20.1-16.3,36.4-36.4,36.4H276.3c-20,0-36.4-16.3-36.4-36.4V277.4c0-20,16.3-36.4,36.4-36.4h168.9c20.1,0,<?xml version="1.0" encoding="utf-8"?>
<!-- Generator: Adobe Illustrator 18.0.0, SVG Export Plug-In . SVG Version: 6.00 Build 0)  -->
<!DOCTYPE svg PUBLIC "-//W3C//DTD SVG 1.1//EN" "http://www.w3.org/Graphics/SVG/1.1/DTD/svg11.dtd">
<svg version="1.1" id="Layer_1" xmlns="http://www.w3.org/2000/svg" xmlns:xlink="http://www.w3.org/1999/xlink" x="0px" y="0px"
	 viewBox="0 0 512 512" enable-background="new 0 0 512 512" xml:space="preserve">
<path fill-rule="evenodd" clip-rule="evenodd" fill="#4A4A4A" d="M91.2,1.5H66.8c-36,0-65.3,29.3-65.3,65.4v378.4
	c0,36,29.3,65.3,65.3,65.3h24.4c36,0,65.3-29.3,65.3-65.3V66.8C156.5,30.8,127.2,1.5,91.2,1.5z M127.6,445.2
	c0,20.1-16.3,36.4-36.4,36.4H66.8c-20,0-36.4-16.3-36.4-36.4V66.8c0-20.1,16.3-36.4,36.4-36.4h24.4c20,0,36.4,16.3,36.4,36.4V445.2z
	 M445.2,1.5H276.3c-36,0-65.3,29.3-65.3,65.4v24.4c0,36,29.3,65.3,65.3,65.3h168.9c36,0,65.3-29.3,65.3-65.3V66.8
	C510.5,30.8,481.2,1.5,445.2,1.5z M481.6,91.3c0,20-16.3,36.4-36.4,36.4H276.3c-20,0-36.4-16.3-36.4-36.4V66.8
	c0-20.1,16.3-36.4,36.4-36.4h168.9c20.1,0,36.4,16.3,36.4,36.4V91.3z M445.2,212.1H276.3c-36,0-65.3,29.3-65.3,65.3v167.8
	c0,36,29.3,65.3,65.3,65.3h168.9c36,0,65.3-29.3,65.3-65.3c0-7.9-6.5-14.4-14.5-14.4c-8,0-14.5,6.5-14.5,14.4
	c0,20.1-16.3,36.4-36.4,36.4H276.3c-20,0-36.4-16.3-36.4-36.4V277.4c0-20,16.3-36.4,36.4-36.4h168.9c20.1,0,36.4,16.3,36.4,36.4
	v66.1c0,8,6.5,14.5,14.5,14.5c8,0,14.5-6.5,14.5-14.5v-66.1C510.5,241.4,481.2,212.1,445.2,212.1z"/>
</svg>
