<?xml version="1.0" encoding="utf-8"?>
<!-- Generator: Adobe Illustrator 18.0.0, SVG Export Plug-In . SVG Version: 6.00 Build 0)  -->
<!DOCTYPE svg PUBLIC "-//W3C//DTD SVG 1.1//EN" "http://www.w3.org/Graphics/SVG/1.1/DTD/svg11.dtd">
<svg version="1.1" id="Layer_1" xmlns="http://www.w3.org/2000/svg" xmlns:xlink="http://www.w3.org/1999/xlink" x="0px" y="0px"
	 viewBox="0 0 512 512" enable-background="new 0 0 512 512" xml:space="preserve">
<g>
	<defs>
		<path id="SVGID_1_" d="M353,203.4c0.1,2.2,0.1,4.4,0.1,6.7c0,68.1-51.9,146.6-146.9,146.6c-29.2,0-56.3-8.6-79.1-23.2
			c4,0.5,8.1,0.7,12.3,0.7c24.2,0,46.5-8.2,64.2-22c-22.6-0.5-41.7-15.3-48.2-35.8c3.2,0.6,6.4,0.9,9.7,0.9c4.8,0,9.9-0.7,14.2-1.8
			c-23.6-4.7-40.9-25.6-40.9-50.6v-0.6c6.7,3.8,14.4,6.1,22.9,6.4c-13.9-9.2-23.2-25-23.2-42.9c0-9.4,2.4-18.3,6.9-25.9
			c25.5,31.2,63.4,51.7,106.4,53.8c-0.9-3<?xml version="1.0" encoding="utf-8"?>
<!-- Generator: Adobe Illustrator 18.0.0, SVG Export Plug-In . SVG Version: 6.00 Build 0)  -->
<!DOCTYPE svg PUBLIC "-//W3C//DTD SVG 1.1//EN" "http://www.w3.org/Graphics/SVG/1.1/DTD/svg11.dtd">
<svg version="1.1" id="Layer_1" xmlns="http://www.w3.org/2000/svg" xmlns:xlink="http://www.w3.org/1999/xlink" x="0px" y="0px"
	 viewBox="0 0 512 512" enable-background="new 0 0 512 512" xml:space="preserve">
<g>
	<defs>
		<path id="SVGID_1_" d="M353,203.4c0.1,2.2,0.1,4.4,0.1,6.7c0,68.1-51.9,146.6-146.9,146.6c-29.2,0-56.3-8.6-79.1-23.2
			c4,0.5,8.1,0.7,12.3,0.7c24.2,0,46.5-8.2,64.2-22c-22.6-0.5-41.7-15.3-48.2-35.8c3.2,0.6,6.4,0.9,9.7,0.9c4.8,0,9.9-0.7,14.2-1.8
			c-23.6-4.7-40.9-25.6-40.9-50.6v-0.6c6.7,3.8,14.4,6.1,22.9,6.4c-13.9-9.2-23.2-25-23.2-42.9c0-9.4,2.4-18.3,6.9-25.9
			c25.5,31.2,63.4,51.7,106.4,53.8c-0.9-3.8-1.4-7.7-1.4-11.7c0-28.5,23.1-51.5,51.6-51.5c14.8,0,28.3,6.2,37.7,16.2
			c11.8-2.3,22.8-6.5,32.8-12.5c-3.8,12-12,22.2-22.7,28.5c10.5-1.2,20.4-4,29.6-8.1C371.9,187,363.1,196.1,353,203.4z M256,7.7
			C115.1,7.7,0.9,118.9,0.9,256c0,137.1,114.2,248.3,255.1,248.3c140.8,0,255-111.2,255-248.3C511.1,118.9,396.9,7.7,256,7.7z"/>
	</defs>
	<clipPath id="SVGID_2_">
		<use xlink:href="#SVGID_1_"  overflow="visible"/>
	</clipPath>
	<g clip-path="url(#SVGID_2_)">
		<defs>
			<rect id="SVGID_3_" x="-15833.9" y="-20709" width="25895.9" height="24996.7"/>
		</defs>
		<clipPath id="SVGID_4_">
			<use xlink:href="#SVGID_3_"  overflow="visible"/>
		</clipPath>
		<rect x="-89" y="-82.2" clip-path="url(#SVGID_4_)" fill="#DCDCDF" width="690" height="676.4"/>
	</g>
</g>
</svg>
