<?xml version="1.0" encoding="utf-8"?>
<!-- Generator: Adobe Illustrator 18.0.0, SVG Export Plug-In . SVG Version: 6.00 Build 0)  -->
<!DOCTYPE svg PUBLIC "-//W3C//DTD SVG 1.1//EN" "http://www.w3.org/Graphics/SVG/1.1/DTD/svg11.dtd">
<svg version="1.1" id="Layer_1" xmlns="http://www.w3.org/2000/svg" xmlns:xlink="http://www.w3.org/1999/xlink" x="0px" y="0px"
	 viewBox="0 0 512 512" enable-background="new 0 0 512 512" xml:space="preserve">
<g>
	<path fill-rule="evenodd" clip-rule="evenodd" fill="#222834" d="M258,374.6c-0.4,0-0.7,0-0.9-0.1l-114.9-44.3
		c-0.6-0.2-1.8-0.8-1.8-2.1V180.4c0-0.2,0.1-1.6,3.2-2.5l113.1-38.5c0,0,0.5,0,0.8,0c0.5,0,1,0.1,1.7,0.1L372.6,178l0.4,0.1
		c1,0.1,2.9,0.4,2.9,2.4v147.8c0,1.3-1.2,1.8-1.7,2l-115,44.3C258.9,374.6,258.5,374.6,258,374.6z M260.8,226.5v142.4l110.5-42.7
		V184.1L260.8,226.5z M145.2,326.2l11<?xml version="1.0" encoding="utf-8"?>
<!-- Generator: Adobe Illustrator 18.0.0, SVG Export Plug-In . SVG Version: 6.00 Build 0)  -->
<!DOCTYPE svg PUBLIC "-//W3C//DTD SVG 1.1//EN" "http://www.w3.org/Graphics/SVG/1.1/DTD/svg11.dtd">
<svg version="1.1" id="Layer_1" xmlns="http://www.w3.org/2000/svg" xmlns:xlink="http://www.w3.org/1999/xlink" x="0px" y="0px"
	 viewBox="0 0 512 512" enable-background="new 0 0 512 512" xml:space="preserve">
<g>
	<path fill-rule="evenodd" clip-rule="evenodd" fill="#222834" d="M258,374.6c-0.4,0-0.7,0-0.9-0.1l-114.9-44.3
		c-0.6-0.2-1.8-0.8-1.8-2.1V180.4c0-0.2,0.1-1.6,3.2-2.5l113.1-38.5c0,0,0.5,0,0.8,0c0.5,0,1,0.1,1.7,0.1L372.6,178l0.4,0.1
		c1,0.1,2.9,0.4,2.9,2.4v147.8c0,1.3-1.2,1.8-1.7,2l-115,44.3C258.9,374.6,258.5,374.6,258,374.6z M260.8,226.5v142.4l110.5-42.7
		V184.1L260.8,226.5z M145.2,326.2l110.5,42.7V226.2l-110.5-42.1V326.2z M149.5,180.4l108.7,41.3l108.7-41.3L258.2,144L149.5,180.4z
		"/>
	<polygon fill-rule="evenodd" clip-rule="evenodd" fill="#53AFA2" points="265.2,230 265.2,361.6 367.4,322.2 367.4,190.8 	"/>
	<path fill-rule="evenodd" clip-rule="evenodd" fill="#222834" d="M4.5,1.7c0.8,0,1.5,0.3,2,0.8l86.7,86.7V36.4
		c0-1.6,1.3-2.8,2.8-2.8c1.6,0,2.8,1.3,2.8,2.8v59.7c0,1.6-1.3,2.8-2.8,2.8H36.4c-0.8,0-1.5-0.3-2-0.8c-0.5-0.5-0.8-1.2-0.8-2
		c0-1.6,1.3-2.8,2.8-2.8h52.9L2.5,6.5C2,6,1.7,5.3,1.7,4.5c0-0.8,0.3-1.5,0.8-2C3.1,2,3.8,1.7,4.5,1.7"/>
	<path fill-rule="evenodd" clip-rule="evenodd" fill="#222834" d="M507.5,510.3c-0.8,0-1.5-0.3-2-0.8l-86.7-86.7v52.9
		c0,1.6-1.3,2.8-2.8,2.8c-1.6,0-2.8-1.3-2.8-2.8v-59.7c0-1.6,1.3-2.8,2.8-2.8h59.7c0.8,0,1.5,0.3,2,0.8c0.5,0.5,0.8,1.2,0.8,2
		c0,1.6-1.3,2.8-2.8,2.8h-52.9l86.7,86.7c0.5,0.5,0.8,1.2,0.8,2c0,0.8-0.3,1.5-0.8,2C508.9,510,508.2,510.3,507.5,510.3"/>
</g>
</svg>
